<svg width="208" height="158" viewBox="0 0 208 158" fill="none" xmlns="http://www.w3.org/2000/svg">
<path d="M185.222 158C181.364 158 177.64 157.53 174.051 156.59C170.507 155.605 167.613 154.352 165.37 152.83L169.744 143.026C171.853 144.369 174.275 145.488 177.012 146.383C179.793 147.234 182.552 147.659 185.289 147.659C187.128 147.659 188.609 147.502 189.73 147.189C190.852 146.831 191.659 146.383 192.153 145.846C192.691 145.264 192.96 144.593 192.96 143.832C192.96 142.757 192.467 141.907 191.48 141.28C190.493 140.653 189.214 140.138 187.644 139.736C186.074 139.333 184.324 138.93 182.395 138.527C180.511 138.124 178.605 137.609 176.675 136.983C174.791 136.356 173.064 135.55 171.494 134.565C169.924 133.536 168.645 132.215 167.658 130.603C166.671 128.947 166.178 126.866 166.178 124.359C166.178 121.538 166.941 118.987 168.466 116.704C170.036 114.421 172.369 112.585 175.464 111.198C178.56 109.81 182.418 109.116 187.038 109.116C190.134 109.116 193.162 109.474 196.123 110.19C199.129 110.862 201.798 111.869 204.131 113.212L200.026 123.083C197.783 121.874 195.562 120.979 193.364 120.397C191.166 119.77 189.035 119.457 186.971 119.457C185.132 119.457 183.651 119.658 182.53 120.061C181.408 120.419 180.601 120.912 180.107 121.538C179.614 122.165 179.367 122.881 179.367 123.687C179.367 124.717 179.838 125.545 180.78 126.172C181.767 126.754 183.046 127.246 184.616 127.649C186.231 128.007 187.981 128.388 189.865 128.79C191.794 129.193 193.7 129.708 195.585 130.335C197.514 130.917 199.263 131.723 200.833 132.752C202.404 133.737 203.66 135.058 204.602 136.714C205.589 138.325 206.082 140.362 206.082 142.824C206.082 145.555 205.297 148.084 203.727 150.412C202.202 152.695 199.891 154.531 196.796 155.918C193.745 157.306 189.887 158 185.222 158Z" fill="#39C796"/>
<path d="M177.618 72.7552H199.488V82.6931H177.618V72.7552ZM178.56 91.2881H203.189V101.562H165.37V54.558H202.314V64.8317H178.56V91.2881Z" fill="#D926AA"/>
<path d="M187.139 48.884C183.416 48.884 179.962 48.302 176.776 47.1381C173.591 45.9295 170.832 44.2284 168.5 42.0348C166.212 39.8413 164.417 37.2673 163.116 34.3128C161.815 31.3135 161.165 28.0232 161.165 24.442C161.165 20.8607 161.815 17.5929 163.116 14.6383C164.417 11.639 166.234 9.04264 168.567 6.84913C170.9 4.65562 173.659 2.97691 176.844 1.81301C180.074 0.604335 183.595 0 187.409 0C191.85 0 195.82 0.738631 199.319 2.21589C202.819 3.69316 205.712 5.81952 208 8.59499L199.521 16.2499C197.906 14.504 196.157 13.2058 194.272 12.3553C192.433 11.46 190.369 11.0123 188.082 11.0123C186.063 11.0123 184.223 11.3257 182.564 11.9524C180.904 12.5791 179.491 13.4968 178.324 14.7055C177.158 15.8694 176.238 17.2795 175.565 18.9358C174.937 20.5474 174.623 22.3828 174.623 24.442C174.623 26.4117 174.937 28.2247 175.565 29.881C176.238 31.5373 177.158 32.9698 178.324 34.1785C179.491 35.3424 180.881 36.2601 182.496 36.9316C184.156 37.5583 185.973 37.8717 187.947 37.8717C189.921 37.8717 191.85 37.5583 193.734 36.9316C195.618 36.2601 197.525 35.141 199.454 33.5742L206.923 42.9078C204.232 44.8327 201.114 46.31 197.57 47.3396C194.026 48.3692 190.549 48.884 187.139 48.884ZM195.147 41.1619V23.4348H206.923V42.9078L195.147 41.1619Z" fill="#A472F9"/>
<path d="M0 117.51V47.0039H16.4529L45.725 94.9478H37.0443L65.5089 47.0039H81.9618L82.1637 117.51H63.7929L63.5911 74.904H66.7201L45.4222 110.56H36.5396L14.636 74.904H18.4717V117.51H0Z" fill="#E8E8E8"/>
<path d="M114.171 117.51V87.6958L118.815 99.6818L87.2209 47.0039H108.317L131.129 85.1777H118.915L141.828 47.0039H161.209L129.716 99.6818L134.157 87.6958V117.51H114.171Z" fill="#E8E8E8"/>
</svg>
