<svg width="37" height="43" viewBox="0 0 37 43" fill="none" xmlns="http://www.w3.org/2000/svg">
<path d="M18.5 0L0 7.72475V19.3119C0 30.03 7.89333 40.0528 18.5 42.4861C29.1067 40.0528 37 30.03 37 19.3119V7.72475L18.5 0ZM18.5 7.72475C20.1355 7.72475 21.704 8.33514 22.8605 9.42165C24.017 10.5082 24.6667 11.9818 24.6667 13.5183C24.6667 15.0549 24.017 16.5285 22.8605 17.615C21.704 18.7015 20.1355 19.3119 18.5 19.3119C16.8645 19.3119 15.296 18.7015 14.1395 17.615C12.983 16.5285 12.3333 15.0549 12.3333 13.5183C12.3333 11.9818 12.983 10.5082 14.1395 9.42165C15.296 8.33514 16.8645 7.72475 18.5 7.72475ZM29.045 30.899C26.5544 34.4807 22.8328 37.1525 18.5 38.4693C14.1672 37.1525 10.4456 34.4807 7.955 30.899C7.25611 29.9334 6.66 28.9678 6.16667 27.9443C6.16667 24.7578 11.7372 22.1507 18.5 22.1507C25.2628 22.1507 30.8333 24.6999 30.8333 27.9443C30.34 28.9678 29.7439 29.9334 29.045 30.899Z" fill="#E4A951"/>
</svg>
